<?xml version="1.0" encoding="UTF-8"?>
<svg id="Layer_1" xmlns="http://www.w3.org/2000/svg" version="1.1" viewBox="0 0 700 750">
  <!-- Generator: Adobe Illustrator 30.2.1, SVG Export Plug-In . SVG Version: 2.1.1 Build 1)  -->
  <defs>
    <style>
      .st0 {
        fill: #0b0b0c;
      }

      .st1 {
        fill: #28a498;
      }

      .st-white {
        fill: #ffffff;
      }

      .st2 {
        fill: #a4c3dc;
      }
    </style>
  </defs>
  <path class="st-white" d="M396.1,736.22c-4.73,2.07-16.94,3.01-27.6,2.13-9.66-.8-46.13-5.46-58-7.41-14.69-2.42-48.82-3.63-59-2.11-3.85.58-13.52,2.42-21.5,4.08-23.32,4.88-34,5.05-34,.55,0-1.04-.61-1.42-1.75-1.1-.96.27-5.13,1.01-9.25,1.65s-9.66,1.58-12.3,2.08-8.94.9-14,.9c-15.14-.02-24.32-3.34-34.88-12.62-7.44-6.53-15.19-15.57-21.78-25.37-2.4-3.58-8.35-12.42-13.22-19.66-4.87-7.24-10.44-14.55-12.37-16.25-3.1-2.72-4.24-3.09-9.52-3.09-3.44,0-8.64.89-12.21,2.1-3.42,1.15-8.47,2.31-11.22,2.58-10.43,1.01-18.19-7.82-22.01-25.07-5.2-23.44,4.29-46.22,22.71-54.54,9.06-4.08,16.16-5.4,26.41-4.88,6.94.35,10.09,1.02,14.35,3.08,3.01,1.45,5.58,2.52,5.73,2.37.15-.14,2.02-5.64,4.17-12.2,6.18-18.9,16.58-48.14,20.53-57.69,1.98-4.81,5.15-12.46,7.03-17,4.18-10.05,14.69-30.09,20.07-38.25,5.51-8.36,22.59-25.22,31.19-30.79,8.79-5.71,16.48-9.37,30.82-14.71,39.28-14.63,53.39-22.27,68.17-36.94,5.2-5.16,12.14-13.51,16.08-19.32,15.9-23.53,27.62-57.66,25.99-75.68-.66-7.23-2.91-11.39-15.96-29.39-13.15-18.15-23.39-33.66-27.81-42.13-12.7-24.33-16.62-33.01-23.48-52.04-8.7-24.11-17.33-64.4-16.24-75.76,1.06-10.98,11.22-11.79,25.51-2.04,10.29,7.01,34.33,27.7,54.54,46.93,8.06,7.67,10.95,9.88,11.4,8.72,1.55-4.06-.74-28.7-4.6-49.35-5.52-29.51-8.72-45.42-11.63-57.73-3.16-13.37-3.16-16.67-.02-19.82,1.35-1.35,3.45-2.45,4.67-2.45,3.62,0,11.67,5.88,16.26,11.88,5.16,6.76,19.98,29.35,24.53,37.39,3.38,5.98,22.86,37.46,34.49,55.73,8.35,13.13,17.09,30.63,19.22,38.5,1.25,4.59,1.8,13.42,2.37,37.5.84,35.38,1.2,37.61,7.93,48.25,5.75,9.11,12.89,15.31,24.65,21.39,10.06,5.2,27.29,12.36,29.76,12.36.74,0,1.82-1.03,2.39-2.3,2.23-4.88,17.62-21.83,29.42-32.4,10.67-9.56,23.36-22.26,27.65-27.67,1.85-2.34,3.21-2.01,3.21.78,0,4.5-7.38,12.39-32.6,34.86-11.09,9.89-24.9,25.3-24.9,27.79,0,.57,2.69,2.34,5.97,3.93,4.75,2.29,6.28,2.64,7.44,1.7.8-.66,7.34-6.29,14.52-12.52,15.68-13.6,35.66-28.69,48.31-36.48,9.17-5.65,11.61-6.56,12.72-4.75.74,1.2-.4,2.17-8.96,7.56-12.37,7.79-23.49,15.75-36.9,26.41-14.13,11.23-27.61,22.95-27.58,23.96.01.35.83,1.68,1.81,2.96l1.79,2.32,7.44-4.91c19.38-12.8,44.17-25.55,60.56-31.13,10.58-3.61,13.68-3.93,13.19-1.36-.23,1.26-3.72,2.9-12.32,5.81-11.94,4.05-27.47,11.45-41.2,19.64-17.94,10.7-23.32,14.04-23.78,14.79-.27.44.7,3.41,2.16,6.61,1.87,4.07,2.66,7.47,2.66,11.36,0,13.98-14.16,32.04-48.83,62.3-20.39,17.78-24.54,21.85-32.58,31.88-6.29,7.86-8.34,11.86-6.07,11.86.47,0,3.96,2.76,7.75,6.14,18.01,16.03,21.79,15.98,49.52-.61,27.34-16.35,34.56-18.82,43.05-14.67,8.33,4.06,11.23,12.09,8.4,23.22-2.22,8.69-7.1,15.68-16.16,23.16-8.18,6.76-28.48,19.63-38.32,24.3-3.35,1.59-6.09,3.44-6.09,4.12,0,2.27,11.2,13.35,18.32,18.11,9.82,6.57,21.86,18.58,25.11,25.06,6.29,12.5,3.22,25.24-6.46,26.79-3,.48-3.85,1.17-4.86,3.95-1.52,4.2-5.51,7.43-9.17,7.43-3.33,0-13.81-5.3-21.74-11-15.81-11.35-26.49-16.96-41.7-21.92-8.25-2.68-17.2-5.84-19.89-7.01-2.69-1.16-5.01-2-5.15-1.85-.15.16,1.13,4.33,2.83,9.28,3,8.73,3.09,9.54,3.13,27,.04,16.07-.21,18.91-2.36,26.5-2.89,10.23-5.66,16.67-11.59,26.95-4.75,8.23-5.31,10.05-3.08,10.05,5.76,0,46.42,15.06,58.2,21.56,16.71,9.21,20.97,23.1,10.33,33.64-2.16,2.13-3.92,4.46-3.92,5.16,0,1.95-3.96,5.27-9,7.56-5.52,2.5-15.66,2.72-24.89.54-3.52-.83-6.56-1.34-6.77-1.14-.2.21.64,2.58,1.87,5.28,4.07,8.94,2.61,22.17-3.14,28.32-1.53,1.65-3.37,4.38-4.07,6.08-2.09,5.05-5.03,8.08-9.9,10.22Z"/>
  <path class="st0" d="M396.1,736.22c-4.73,2.07-16.94,3.01-27.6,2.13-9.66-.8-46.13-5.46-58-7.41-14.69-2.42-48.82-3.63-59-2.11-3.85.58-13.52,2.42-21.5,4.08-23.32,4.88-34,5.05-34,.55,0-1.04-.61-1.42-1.75-1.1-.96.27-5.13,1.01-9.25,1.65s-9.66,1.58-12.3,2.08-8.94.9-14,.9c-15.14-.02-24.32-3.34-34.88-12.62-7.44-6.53-15.19-15.57-21.78-25.37-2.4-3.58-8.35-12.42-13.22-19.66-4.87-7.24-10.44-14.55-12.37-16.25-3.1-2.72-4.24-3.09-9.52-3.09-3.44,0-8.64.89-12.21,2.1-3.42,1.15-8.47,2.31-11.22,2.58-10.43,1.01-18.19-7.82-22.01-25.07-5.2-23.44,4.29-46.22,22.71-54.54,9.06-4.08,16.16-5.4,26.41-4.88,6.94.35,10.09,1.02,14.35,3.08,3.01,1.45,5.58,2.52,5.73,2.37.15-.14,2.02-5.64,4.17-12.2,6.18-18.9,16.58-48.14,20.53-57.69,1.98-4.81,5.15-12.46,7.03-17,4.18-10.05,14.69-30.09,20.07-38.25,5.51-8.36,22.59-25.22,31.19-30.79,8.79-5.71,16.48-9.37,30.82-14.71,39.28-14.63,53.39-22.27,68.17-36.94,5.2-5.16,12.14-13.51,16.08-19.32,15.9-23.53,27.62-57.66,25.99-75.68-.66-7.23-2.91-11.39-15.96-29.39-13.15-18.15-23.39-33.66-27.81-42.13-12.7-24.33-16.62-33.01-23.48-52.04-8.7-24.11-17.33-64.4-16.24-75.76,1.06-10.98,11.22-11.79,25.51-2.04,10.29,7.01,34.33,27.7,54.54,46.93,8.06,7.67,10.95,9.88,11.4,8.72,1.55-4.06-.74-28.7-4.6-49.35-5.52-29.51-8.72-45.42-11.63-57.73-3.16-13.37-3.16-16.67-.02-19.82,1.35-1.35,3.45-2.45,4.67-2.45,3.62,0,11.67,5.88,16.26,11.88,5.16,6.76,19.98,29.35,24.53,37.39,3.38,5.98,22.86,37.46,34.49,55.73,8.35,13.13,17.09,30.63,19.22,38.5,1.25,4.59,1.8,13.42,2.37,37.5.84,35.38,1.2,37.61,7.93,48.25,5.75,9.11,12.89,15.31,24.65,21.39,10.06,5.2,27.29,12.36,29.76,12.36.74,0,1.82-1.03,2.39-2.3,2.23-4.88,17.62-21.83,29.42-32.4,10.67-9.56,23.36-22.26,27.65-27.67,1.85-2.34,3.21-2.01,3.21.78,0,4.5-7.38,12.39-32.6,34.86-11.09,9.89-24.9,25.3-24.9,27.79,0,.57,2.69,2.34,5.97,3.93,4.75,2.29,6.28,2.64,7.44,1.7.8-.66,7.34-6.29,14.52-12.52,15.68-13.6,35.66-28.69,48.31-36.48,9.17-5.65,11.61-6.56,12.72-4.75.74,1.2-.4,2.17-8.96,7.56-12.37,7.79-23.49,15.75-36.9,26.41-14.13,11.23-27.61,22.95-27.58,23.96.01.35.83,1.68,1.81,2.96l1.79,2.32,7.44-4.91c19.38-12.8,44.17-25.55,60.56-31.13,10.58-3.61,13.68-3.93,13.19-1.36-.23,1.26-3.72,2.9-12.32,5.81-11.94,4.05-27.47,11.45-41.2,19.64-17.94,10.7-23.32,14.04-23.78,14.79-.27.44.7,3.41,2.16,6.61,1.87,4.07,2.66,7.47,2.66,11.36,0,13.98-14.16,32.04-48.83,62.3-20.39,17.78-24.54,21.85-32.58,31.88-6.29,7.86-8.34,11.86-6.07,11.86.47,0,3.96,2.76,7.75,6.14,18.01,16.03,21.79,15.98,49.52-.61,27.34-16.35,34.56-18.82,43.05-14.67,8.33,4.06,11.23,12.09,8.4,23.22-2.22,8.69-7.1,15.68-16.16,23.16-8.18,6.76-28.48,19.63-38.32,24.3-3.35,1.59-6.09,3.44-6.09,4.12,0,2.27,11.2,13.35,18.32,18.11,9.82,6.57,21.86,18.58,25.11,25.06,6.29,12.5,3.22,25.24-6.46,26.79-3,.48-3.85,1.17-4.86,3.95-1.52,4.2-5.51,7.43-9.17,7.43-3.33,0-13.81-5.3-21.74-11-15.81-11.35-26.49-16.96-41.7-21.92-8.25-2.68-17.2-5.84-19.89-7.01-2.69-1.16-5.01-2-5.15-1.85-.15.16,1.13,4.33,2.83,9.28,3,8.73,3.09,9.54,3.13,27,.04,16.07-.21,18.91-2.36,26.5-2.89,10.23-5.66,16.67-11.59,26.95-4.75,8.23-5.31,10.05-3.08,10.05,5.76,0,46.42,15.06,58.2,21.56,16.71,9.21,20.97,23.1,10.33,33.64-2.16,2.13-3.92,4.46-3.92,5.16,0,1.95-3.96,5.27-9,7.56-5.52,2.5-15.66,2.72-24.89.54-3.52-.83-6.56-1.34-6.77-1.14-.2.21.64,2.58,1.87,5.28,4.07,8.94,2.61,22.17-3.14,28.32-1.53,1.65-3.37,4.38-4.07,6.08-2.09,5.05-5.03,8.08-9.9,10.22ZM141.88,729.69c9.04,3.08,20.46,3.01,39.84-.24,15.4-2.59,25.01-5.45,46.78-13.94,6.6-2.57,13.12-5.03,14.5-5.47,5.82-1.85,20.34-9.18,29.21-14.75,30.01-18.87,48.18-42.25,57.25-73.71,3.85-13.33,4.95-21.64,4.87-36.58-.07-14.36-1.22-21.44-6.37-39.29-3.49-12.11-3.54-12.71-1-12.71,2.27,0,3.15,1.41,5.96,9.57,6.22,18.06,8.63,45.29,5.61,63.43-2.88,17.29-9.17,34.78-17.55,48.75-.24.41-.47.78-.68,1.13-1.12,1.83-1.78,2.91-1.53,3.68.41,1.25,3.19,1.72,10.23,3.33,4.67,1.07,15.34,3.74,23.71,5.93,8.36,2.2,23.2,5.41,32.97,7.13,9.77,1.72,22.13,4.23,27.47,5.59,15.86,4.02,27.89,3.13,32.6-2.4,4.94-5.82,1.15-11.67-9.57-14.76-5.25-1.52-7.13-2.73-7.16-4.63-.04-1.53,9.63-.64,13.88,1.29,2.42,1.1,5.91,3.6,7.76,5.56l3.37,3.57,1.48-3.55c1.86-4.44,1.88-6.98.08-10.42-4.31-8.26-21.08-16.97-53.09-27.59-12.18-4.04-15.9-5.34-19.64-5.4-1.73-.02-3.46.21-6.03.56-.25.03-.52.07-.8.11-10.58,1.42-16.54,4.65-24.18,13.1-4.61,5.09-6.1,6.21-6.8,5.08-1.39-2.22,2.02-7.82,8.69-14.26,3.24-3.14,6.76-5.69,7.83-5.68,1.06.01,4.41-.9,7.43-2.02s6.49-2.05,7.7-2.07c2.77-.04,6.7-5.63,13.22-18.77,7.88-15.9,9.99-25.1,10.04-43.76.05-18.88-3.79-31.62-13.1-43.5-5.96-7.6-9.77-15.33-11.77-23.86-1.13-4.79-2.96-11.34-4.07-14.57-2.41-7.02-2.55-9.57-.51-9.57,2.31,0,5.12,5.43,7.47,14.4,4.57,17.48,5.97,21.13,10.41,27.03,5.17,6.88,6.1,7.45,19.82,12.02,31.6,10.52,36.03,12.62,58.29,27.59,5.5,3.71,11.89,7.68,14.21,8.85,6.88,3.45,11.29,2.44,11.29-2.59,0-3.2,3.43-6.3,6.98-6.3,6.38,0,8.43-9.71,4.13-19.58-2.61-6-9.7-13.17-23.11-23.37-10.35-7.88-25.81-23.7-24.39-24.96.49-.43,4.72-2.52,9.39-4.64,13.95-6.33,35.41-20.13,43.12-27.73,10.5-10.36,14.7-20.67,11.89-29.19-2.13-6.46-11.16-8.41-20.97-4.55-2.76,1.09-11.83,6.09-20.14,11.12-31.16,18.81-35.73,19.54-50.76,8.13-4.75-3.61-8.87-6.84-9.14-7.17-.27-.34-2.42-2.11-4.77-3.93-7.06-5.5-7.05-5.67.91-16.24,8.98-11.94,15.49-18.66,29.96-30.92,26.25-22.23,44.41-41.64,50.04-53.47,3.43-7.2,3.72-14,.89-20.25-1.05-2.31-1.57-3.5-2.44-3.89-.91-.4-2.2.07-4.86,1.03l-.23.08c-7.92,2.85-14.5,1.14-14.5-3.78,0-1.1,1.8-3.72,4.01-5.81l4.01-3.82-2.96-1.53c-1.63-.84-7.15-3.05-12.26-4.9-14.26-5.18-30.77-12.85-37.36-17.37-11.61-7.96-19.8-18.45-23.61-30.26-1.88-5.81-2.18-9.85-2.78-38l-.67-31.5-3.16-9.22c-4.23-12.33-7.59-18.78-19.14-36.68-10.58-16.41-23.87-38.03-33.54-54.6-8.94-15.3-21.69-33.87-26.59-38.7-3.98-3.93-9.27-6.32-10.74-4.84-.36.35.34,5.23,1.54,10.84,6.17,28.85,15.18,75.36,16.21,83.72.65,5.21,1.05,15.21.9,22.22l-.27,12.74,3.07,3.26c13.01,13.82,24.55,32.33,27.92,44.76,1.91,7.06,4.34,31.38,4.53,45.33.12,8.55-.17,11.16-1.38,12.37-.85.85-1.96,1.27-2.48.96-.52-.32-1.23-5.67-1.57-11.87-1.54-27.29-2.8-39.3-4.41-41.79-2.96-4.57-13.66-15.12-22.27-21.95-9.84-7.81-17.6-12.93-35-23.08-6.88-4.01-15.06-9.02-18.2-11.13-3.13-2.11-5.94-3.84-6.25-3.84-1.85,0,.8,16.83,4.39,27.92,6.37,19.64,26.51,49.06,60.81,88.82,3.44,3.99,6.25,7.65,6.25,8.13s-.63,1.4-1.39,2.04c-1.11.92-2.4.09-6.41-4.13-14.65-15.42-42.43-51.45-51.87-67.28-10.64-17.85-15.52-31.46-17.24-48.13-1.13-10.99-.61-14.37,2.23-14.37,1.9,0,18.26,9.26,28.18,15.95,2.2,1.48,7.58,4.64,11.96,7.02,11.81,6.4,21.23,13.22,32.85,23.76,3.19,2.9,6.25,5.27,6.79,5.27,1.09,0-2.41-6.41-8.29-15.2-4.52-6.76-21.14-24.68-32.91-35.5-4.62-4.25-9.3-8.57-10.4-9.61-9-8.49-37.69-32.92-42.1-35.83-5.89-3.88-13.35-6.48-15.87-5.51-2.34.9-1.95,12.81.95,28.38,3.01,16.21,4.48,22.12,9.68,38.77,12.16,38.99,26.66,66.4,58.53,110.63,12.46,17.3,14.11,23.95,10.81,43.49-1.9,11.23-6.17,23.54-13.52,39.06-16.42,34.62-40.43,56.82-76.48,70.69-2.2.85-8.95,3.41-15,5.71-6.05,2.29-12.35,4.75-14,5.46-21.17,9.1-30.07,14.93-41.45,27.11-17.33,18.56-30.71,45.97-52.14,106.81-6,17.03-11.56,31.62-12.36,32.42-1.09,1.08-1.79,1.17-2.8.33-.74-.61-2.22-1.07-3.3-1.01-1.07.05-4.64-.7-7.92-1.68-4.65-1.4-8.01-1.67-15.24-1.23-12.5.74-21.11,4.59-28.76,12.85-6.55,7.07-9.44,14.24-10.22,25.33-.99,14.02,4.83,31.48,11.68,35.02,4,2.07,6.69,1.91,15.72-.98,9.01-2.87,17.95-3.26,22.4-.95,1.65.85,4.78,3.16,6.95,5.12,3.35,3.02,4.18,3.36,5.51,2.26,6.41-5.32,5.79-19.97-1.43-33.43-2.49-4.63-2.75-7.51-.68-7.51,4.84,0,11.54,15.98,11.54,27.52,0,8.3-1.31,11.96-6.1,17.02l-2.88,3.03,2.82,3.47c1.54,1.9,3.06,4.13,3.36,4.96.31.83,2.71,4.42,5.35,8,2.63,3.58,7.26,9.88,10.27,14,13.11,17.91,20.9,24.89,32.06,28.69ZM622.5,375.36c-7.21,3.44-13.83,3.99-20.23,1.69-5.67-2.04-7.52-3.24-20.02-12.85-4.53-3.49-10.61-7.78-13.5-9.53-15.71-9.55-24.38-17.27-27.49-24.48-.93-2.15-1.62-6.62-1.65-10.69-.05-5.72.43-7.94,2.63-12.15,8.5-16.26,30.51-28.29,55.52-30.33,29.43-2.4,61.36,5.83,74.29,19.15,13.76,14.18,11.42,29.14-6.93,44.25-15.27,12.58-25.81,21.57-31.62,26.97-3.3,3.07-8.25,6.65-11,7.97ZM598.42,369.87c4.41,2.36,7.15,3.13,11.07,3.13,9.39,0,12.68-1.89,28.5-16.38,4.13-3.78,12.82-11.14,19.3-16.35,20.7-16.64,23.4-26.5,11.02-40.27-5.66-6.3-10.35-9.05-21.91-12.88-13.52-4.47-21.24-5.6-38.4-5.59-21.41,0-34.73,3.43-47.62,12.24-11.13,7.61-15.61,14.61-16.21,25.32-.63,11.03,3.39,16.41,20.83,27.91,16.13,10.64,18.36,12.19,23.03,16.02,2.48,2.05,7.16,5.13,10.39,6.85ZM365.09,732.91c14.75,1.2,26.47.53,30.36-1.74,1.64-.96,3.84-3.22,4.9-5.03,1.65-2.83,1.76-3.83.78-7.11-1.4-4.67-7-9.9-13.96-13.05-2.84-1.28-5.17-2.88-5.17-3.55,0-6.12,17.44,2.97,23.09,12.03l1.84,2.95,1.74-3.95c3.85-8.78,1.01-24-5.25-28.1-1.29-.85-7.65-2.37-14.13-3.38-6.49-1.01-14.43-2.35-17.66-2.98-8.82-1.72-47.48-11.85-49.63-13-4.62-2.47-6.53-1.33-19.68,11.81-7.05,7.04-15.4,14.48-18.55,16.54-10.61,6.91-27.21,15.76-35.27,18.79-4.4,1.65-10.7,4.18-14,5.61-12.26,5.33-26.13,10.33-30.28,10.92-2.35.33-4.56,1.07-4.9,1.63-.95,1.52,14.4.13,25.68-2.33,16.61-3.62,23.02-5.14,29.52-5.67,4.62-.38,9.29-.26,17.69-.04,1.33.03,2.76.07,4.29.11,16.18.4,26.41,1.16,34.5,2.56,15.22,2.64,39.95,5.83,54.09,6.98ZM392.75,296.97c-9.03,4.51-15.82,3.83-22.5-2.27-3.12-2.84-2.82-5.06,1.26-9.58,3.31-3.67,4.71-4.5,11.99-7.16,2.67-.98,2.8-1.21,1.21-2.1-.98-.55-6.7-1.26-12.7-1.58-7.95-.42-11.05-.95-11.44-1.96-.32-.83.49-1.85,2.02-2.54,3.69-1.68,25.1.4,32.91,3.19,12.19,4.36,15.61,6.26,15.29,8.47-.24,1.72-.95,2.03-4.29,1.9-3.7-.15-4.01.04-4.1,2.55-.15,4.37-3.17,7.84-9.65,11.08ZM370.69,372.18c-10.18,8.86-14.69,11.77-14.69,9.5,0-2.39,20.15-21.03,29-26.83,9.81-6.44,20.81-12.38,21.54-11.64,1.46,1.46-1.96,4.55-13.7,12.36-7.13,4.74-17.1,12.22-22.15,16.61ZM365.5,348.25c-9.49,4.1-16,5.27-19.39,3.5-3.78-1.98-2.62-3.2,3.61-3.85,3.4-.35,12.98-3.28,23.28-7.12,25.23-9.4,30-10.72,30-8.31,0,1.72-3.04,3.11-18.5,8.5-6.05,2.11-14.6,5.39-19,7.28ZM413.23,366.75c-10.33,10.59-19.07,19.25-19.44,19.25-1.57,0-1.56-1.8.03-4.22,3-4.58,25.26-28.49,30.44-32.71,5.07-4.12,7.74-5.1,7.74-2.82-.01.69-8.45,9.91-18.77,20.5ZM380.25,293.01c5.05,2.11,17.14-3.24,16.56-7.34-.25-1.75-1.09-2.23-4.31-2.5-9.6-.78-19.2,6.93-12.25,9.84ZM480,291.56c0,.94,7.25-.53,8.76-1.78,1.42-1.17-.09-3.81-2.13-3.75-1.27.04-6.63,4.51-6.63,5.53Z"/>
  <path class="st1" d="M598.42,369.87c-3.23-1.72-7.91-4.8-10.39-6.85-4.67-3.83-6.9-5.38-23.03-16.02-17.44-11.5-21.46-16.88-20.83-27.91.6-10.71,5.08-17.71,16.21-25.32,12.89-8.81,26.21-12.24,47.62-12.24,17.16-.01,24.88,1.12,38.4,5.59,11.56,3.83,16.25,6.58,21.91,12.88,12.38,13.77,9.68,23.63-11.02,40.27-6.48,5.21-15.17,12.57-19.3,16.35-15.82,14.49-19.11,16.38-28.5,16.38-3.92,0-6.66-.77-11.07-3.13Z"/>
  <path class="st2" d="M204.17,696.96c-10.44,2.33-26.32,2.62-35.17.65-10.29-2.29-19.2-8.14-24.42-16-3.31-5-3.33-9.01-.05-12.05,3.52-3.26,7.19-3.57,20.9-1.77,9.6,1.26,13.41,1.35,19.5.45,18.08-2.66,40.7-15.3,70.17-39.2,20.56-16.68,31.42-20.67,38.09-14,2.86,2.85,3.01,3.41,2.63,9.25-.66,9.89-3.93,13.48-43.11,47.34-14.63,12.64-31.79,21.6-48.54,25.33ZM345.08,642.11s-.06-.07-.08-.11c-.47-.77-.5-2.09-.07-2.95.44-.85.59-2.13.34-2.84-1.37-3.82,2.53-9.04,11.91-15.97,4.62-3.42,5.61-4.78,7.49-10.34,2.21-6.53,11.45-31.35,15.88-42.66,1.35-3.44,2.45-6.88,2.45-7.64s.82-2.39,1.82-3.62c1.57-1.95,2.12-2.08,4.09-1.03,2.67,1.43,5.39,7.25,7.15,15.3.69,3.16,1.57,5.75,1.95,5.75.8,0,1.71-8.7,1.93-17.56-.27,16.73-2.56,25.78-10.02,40.82-6.52,13.14-10.45,18.73-13.22,18.77-1.21.02-4.68.95-7.7,2.07s-6.37,2.03-7.43,2.02c-1.07-.01-4.59,2.54-7.83,5.68-6.67,6.44-10.08,12.04-8.69,14.26.01.02.02.03.03.05ZM301.99,724.73c-6.62-.67-14.74-1.09-25.49-1.36-1.53-.04-2.96-.08-4.29-.11-8.4-.22-13.07-.34-17.69.04-5.55.45-11.04,1.62-22.87,4.21.12-.4.16-1.01.09-1.68-.16-1.48.76-2.84,2.89-4.25l.85-.56c3.94-2.62,5.37-3.57,5.27-3.76-.05-.11-.59.02-1.43.23-.1.02-.21.05-.32.07-1.38.34-7.53,2.59-13.68,5.01-.89.36-1.81.71-2.75,1.07,3.89-1.5,7.99-3.18,11.93-4.89,3.3-1.43,9.6-3.96,14-5.61,6.86-2.58,19.91-9.38,30.18-15.6-.8.49-1.61.99-2.44,1.48-3.99,2.36-7.06,4.49-6.83,4.73.24.23,5.73-1.42,12.21-3.67,13.38-4.63,16.98-4.97,20.82-1.95,3.69,2.91,4.88,6.37,3.56,10.37-1.59,4.81-6.05,8.29-14.87,11.58-3.12,1.17-3.24,1.37-1.56,2.59,1,.73,3.41,1.34,5.37,1.34,1.07,0,3.73.28,7.05.72ZM75.11,656.56c-4.45-2.31-13.39-1.92-22.4.95,4.29-1.37,8.83-2.49,10.11-2.5,1.28,0,3.04-.73,3.92-1.61,1.46-1.46,1.06-1.53-4.82-.78-9.93,1.26-13.77.87-16.5-1.7-3.15-2.96-3.23-7.81-.17-10.68,3.62-3.39,7.7-4.48,16.75-4.46,7.2.02,9.98.56,18.16,3.54,5.31,1.94,9.89,3.3,10.17,3.01.22-.21.14-1.01-.17-2.16,3.1,10.24,2.3,19.72-2.59,23.77-1.33,1.1-2.16.76-5.51-2.26-2.17-1.96-5.3-4.27-6.95-5.12ZM94.17,635.36c1.66,3.74,3.55,6.42,5.94,8.47,6.66,5.69,9.32,13.01,10.48,28.8.79,10.78-.31,14.83-4.31,15.83-1.86.47-3.23.02-5.11-1.66l-2.57-2.3,1.84,3c.95,1.56,3.95,5.96,6.84,10.03-2.68-3.67-5.76-7.86-7.73-10.53-2.64-3.58-5.04-7.17-5.35-8-.3-.83-1.82-3.06-3.36-4.96l-2.82-3.47,2.88-3.03c4.79-5.06,6.1-8.72,6.1-17.02,0-4.78-1.15-10.31-2.83-15.16ZM398.39,627.25c-5.17-1.58-9.48-2.65-12.01-2.9l-6.11-.61.48,4.97c.43,4.5.22,5.17-2.27,7.13-3.02,2.37-7.43,2.79-10.75,1.01-2.63-1.4-5.65-4.91-5.7-6.6-.03-1.16-.56-1.5-1.67-.95,4.46-3.01,9.2-4.55,15.67-5.42.28-.04.55-.08.8-.11,2.57-.35,4.3-.58,6.03-.56,3.28.06,6.55,1.06,15.53,4.04ZM206.56,731.02c2.17.29,8.44-.27,13.94-1.23,1.22-.22,2.41-.42,3.53-.61-11.17,2.33-25.63,3.6-24.71,2.12.34-.56,2.55-1.3,4.9-1.63,2.2-.32,7.11-1.86,13.07-4.04-3.7,1.37-7.06,2.55-8.91,3.11l-5.77,1.76,3.95.52ZM288,691.06c3.97-3.34,9.45-8.39,14.32-13.25,2.03-2.03,3.79-3.77,5.33-5.25-.72.74-1.5,1.55-2.32,2.42-6.44,6.77-11.83,11.81-17.33,16.08ZM141.88,729.69c-7.54-2.57-13.55-6.59-20.69-14.45,7.15,7.79,13.32,11.94,20.69,14.45ZM456.35,657.9c.98,2.66.7,5.04-.84,8.72,1.34-3.19,1.66-6.03.84-8.72ZM357,631.88c-1.2,1.1-2.64,2.54-4.32,4.32-.83.87-1.58,1.64-2.24,2.32.43-.47.9-.98,1.41-1.54,1.78-1.97,3.47-3.66,5.15-5.1ZM397.54,533.32c-2.1-7.94-5.59-14.83-10.68-21.32,5.13,6.55,8.6,13.36,10.68,21.32ZM436.88,642.01c-4.08-1.99-9.15-4.16-14.52-6.29,5.55,2.16,10.38,4.26,14.52,6.29ZM88.19,634.77c-.62-1.41-1.32-2.89-2.06-4.27-1.22-2.26-1.9-4.11-2.03-5.4.14,1.3.82,3.14,2.04,5.41.75,1.42,1.44,2.84,2.05,4.26ZM365.09,732.91c-2.23-.18-4.74-.42-7.43-.69,2.71.28,5.23.51,7.48.69.92.08,1.83.15,2.72.21-.91-.06-1.83-.13-2.77-.21Z"/>
</svg>